<?xml version="1.0" encoding="UTF-8" standalone="no"?>
<!-- Created with Inkscape (http://www.inkscape.org/) -->

<svg
   width="50"
   height="40"
   viewBox="0 0 13.229166 10.583334"
   version="1.1"
   id="svg5"
   inkscape:version="1.2.2 (732a01da63, 2022-12-09)"
   sodipodi:docname="arrow-map2.svg"
   xmlns:inkscape="http://www.inkscape.org/namespaces/inkscape"
   xmlns:sodipodi="http://sodipodi.sourceforge.net/DTD/sodipodi-0.dtd"
   xmlns="http://www.w3.org/2000/svg"
   xmlns:svg="http://www.w3.org/2000/svg">
  <sodipodi:namedview
     id="namedview7"
     pagecolor="#505050"
     bordercolor="#ffffff"
     borderopacity="1"
     inkscape:showpageshadow="0"
     inkscape:pageopacity="0"
     inkscape:pagecheckerboard="1"
     inkscape:deskcolor="#505050"
     inkscape:document-units="mm"
     showgrid="false"
     showguides="true"
     inkscape:zoom="22.627417"
     inkscape:cx="20.70497"
     inkscape:cy="26.516504"
     inkscape:window-width="3440"
     inkscape:window-height="1377"
     inkscape:window-x="1912"
     inkscape:window-y="-8"
     inkscape:window-maximized="1"
     inkscape:current-layer="layer1">
    <sodipodi:guide
       position="9.4119695,9.6925699"
       orientation="1,0"
       id="guide1180"
       inkscape:locked="false" />
  </sodipodi:namedview>
  <defs
     id="defs2" />
  <g
     inkscape:label="Layer 1"
     inkscape:groupmode="layer"
     id="layer1">
    <path
       id="rect792"
       style="display:inline;stroke-width:0.471816;stroke-linejoin:round;paint-order:fill markers stroke"
       inkscape:label="rect792"
       d="M 9.334314 0.14211019 C 8.9913546 0.13567405 9.0309733 0.70124919 9.0309733 0.70124919 L 9.0309733 0.70383301 L 9.0356242 1.9513021 L 0.59686279 1.9513021 C 0.41725896 1.9513021 0.27285156 2.1854582 0.27285156 2.4768514 L 0.27285156 8.0589396 C 0.27285156 8.1118806 0.27740924 8.1627596 0.28628743 8.2108683 C 0.29331343 8.2489393 0.30337485 8.2855366 0.31522624 8.3193888 C 0.37082818 8.4782129 0.47571268 8.6258301 0.59686279 8.6258301 L 9.0449259 8.6258301 L 9.0495768 9.9053385 C 9.0495768 9.9053385 9.0587271 10.400916 9.3921916 10.400916 C 9.7256489 10.400916 12.837976 5.8926636 12.837976 5.8926636 C 12.837976 5.8926636 13.304267 5.3845003 12.834875 4.7599162 C 12.609709 4.4603035 9.6274127 0.1445636 9.4076945 0.15141195 C 9.3813005 0.14556456 9.3571774 0.14253909 9.334314 0.14211019 z M 2.2908162 2.3817668 C 2.4883715 2.3817668 2.9827637 2.4560228 2.9827637 2.7347168 C 2.9827637 2.8723 2.8907244 2.9956828 2.7460856 2.9956828 C 2.6014471 2.9956828 2.5061689 2.8902629 2.2768636 2.8902629 C 2.1251695 2.8902629 1.9874756 2.9356349 1.9874756 3.0943848 C 1.9874756 3.4118842 3.1129883 3.4295867 3.1129883 4.2162801 C 3.1129883 4.6854738 2.7036829 4.9785075 2.2344889 4.9785075 C 1.9628505 4.9785075 1.3771769 4.9147934 1.3771769 4.5831828 C 1.3771769 4.4455996 1.4692163 4.3330688 1.613855 4.3330688 C 1.8149381 4.3330688 1.8921848 4.4705282 2.2096842 4.4705282 C 2.4389895 4.4705282 2.5765869 4.3962378 2.5765869 4.2586548 C 2.5765869 3.8459053 1.4092163 3.9094588 1.4092163 3.0804321 C 1.4092163 2.6606271 1.8216225 2.3817668 2.2908162 2.3817668 z M 3.8643636 2.4029541 C 4.0160579 2.4029541 4.1289469 2.5020009 4.1289469 2.6783895 L 4.1289469 4.6818848 C 4.1289469 4.8582732 4.0160579 4.9573201 3.8643636 4.9573201 C 3.7126694 4.9573201 3.5997803 4.8582734 3.5997803 4.6818848 L 3.5997803 2.6783895 C 3.5997803 2.5020011 3.7126694 2.4029541 3.8643636 2.4029541 z M 4.7500977 2.4241414 L 6.0482096 2.4241414 C 6.1999035 2.4241414 6.2879883 2.5440655 6.2879883 2.6675374 C 6.2879883 2.7874817 6.2175429 2.9109334 6.0482096 2.9109334 L 5.663737 2.9109334 L 5.663737 4.6818848 C 5.663737 4.8582732 5.5508479 4.9573201 5.3991536 4.9573201 C 5.2474595 4.9573201 5.1345703 4.8582734 5.1345703 4.6818848 L 5.1345703 2.9109334 L 4.7500977 2.9109334 C 4.5807648 2.9109334 4.5098022 2.7874817 4.5098022 2.6675374 C 4.5098022 2.5440655 4.5984033 2.4241414 4.7500977 2.4241414 z M 6.944279 2.4241414 L 7.819161 2.4241414 C 7.988494 2.4241414 8.0697917 2.5440655 8.0697917 2.6675374 C 8.0697917 2.7874817 7.9849663 2.9109334 7.819161 2.9109334 L 7.1980103 2.9109334 L 7.1980103 3.4261475 L 7.7767863 3.4261475 C 7.9496469 3.4261475 8.0341349 3.5460714 8.0341349 3.6695435 C 8.0341349 3.7894876 7.9461194 3.9129395 7.7767863 3.9129395 L 7.1980103 3.9129395 L 7.1980103 4.4493408 L 7.8506836 4.4493408 C 8.0200166 4.4493408 8.1013143 4.5692647 8.1013143 4.6927368 C 8.1013143 4.8126811 8.0164889 4.9361328 7.8506836 4.9361328 L 6.9406616 4.9361328 C 6.7854397 4.9361328 6.6688436 4.8302992 6.6688436 4.6715495 L 6.6688436 2.7310994 C 6.6688436 2.5547108 6.757307 2.4241414 6.944279 2.4241414 z M 5.3893351 5.5919067 C 5.3948738 5.5916548 5.4002492 5.5919067 5.4058716 5.5919067 C 5.5928435 5.5919067 5.7236542 5.7150623 5.7836263 5.8843953 L 6.475057 7.803658 C 6.4962188 7.8601028 6.503479 7.9097054 6.503479 7.9343994 C 6.503479 8.0719827 6.3906106 8.1669434 6.260083 8.1669434 C 6.1119166 8.1669434 6.0374956 8.0893252 6.0022176 7.983492 L 5.8787109 7.5990194 L 4.933549 7.5990194 L 4.8100423 7.9798747 C 4.7747647 8.0892358 4.7004329 8.1669434 4.5557943 8.1669434 C 4.4146833 8.1669434 4.2948283 8.061041 4.2948283 7.91993 C 4.2948283 7.8634855 4.312573 7.821297 4.319633 7.803658 L 5.0286336 5.8843953 C 5.0867317 5.7271891 5.2176376 5.5997163 5.3893351 5.5919067 z M 1.6986043 5.6130941 C 1.7043487 5.6128165 1.7103314 5.6130941 1.7161743 5.6130941 C 1.8925629 5.6130941 2.0298016 5.7398256 2.0686076 5.8668254 L 2.4851196 7.2641561 L 2.4923543 7.2641561 L 2.9083496 5.8668254 C 2.9471552 5.7398256 3.084911 5.6130941 3.2612996 5.6130941 C 3.4482718 5.6130941 3.585848 5.7573957 3.607015 5.8843953 L 3.9351603 7.8532674 C 3.9386903 7.8744334 3.9387777 7.8955731 3.9387777 7.9132121 C 3.9387777 8.0684338 3.8256406 8.1669434 3.6845296 8.1669434 C 3.5046132 8.1669434 3.434305 8.0857353 3.409611 7.91993 L 3.201355 6.4843587 L 3.1941203 6.4843587 L 2.7708903 7.9623047 C 2.7461959 8.0469712 2.6792367 8.1669434 2.488737 8.1669434 C 2.298237 8.1669434 2.2312775 8.0469715 2.2065837 7.9623047 L 1.7828369 6.4843587 L 1.776119 6.4843587 L 1.567863 7.91993 C 1.5431686 8.0857352 1.4728609 8.1669434 1.2929443 8.1669434 C 1.1518335 8.1669434 1.0386963 8.068434 1.0386963 7.9132121 C 1.0386963 7.8955731 1.0387836 7.8744344 1.0423136 7.8532674 L 1.370459 5.8843953 C 1.3909642 5.7613644 1.520529 5.621698 1.6986043 5.6130941 z M 7.1923258 5.6342814 C 7.1976858 5.6340694 7.2033502 5.6342814 7.2088623 5.6342814 L 7.8331136 5.6342814 C 8.3516962 5.6342814 8.7364176 5.9726524 8.7364176 6.477124 C 8.7364176 6.9921789 8.337606 7.3132487 7.8543009 7.3132487 L 7.4625936 7.3132487 L 7.4625936 7.8920247 C 7.4625936 8.0684133 7.3497044 8.1669434 7.1980103 8.1669434 C 7.0463159 8.1669434 6.9334269 8.0684135 6.9334269 7.8920247 L 6.9334269 5.9092 C 6.9334269 5.7485761 7.0261685 5.6408528 7.1923258 5.6342814 z M 7.4625936 6.0998861 L 7.4625936 6.847644 L 7.8227783 6.847644 C 8.0450281 6.847644 8.1860636 6.6851731 8.1860636 6.4735067 C 8.1860636 6.2618403 8.0450281 6.0998861 7.8227783 6.0998861 L 7.4625936 6.0998861 z M 5.402771 6.1422607 L 5.0885783 7.1122274 L 5.7236816 7.1122274 L 5.4094889 6.1422607 L 5.402771 6.1422607 z " />
    <text
       xml:space="preserve"
       style="font-weight:bold;font-size:3.52778px;font-family:Tate;-inkscape-font-specification:'Tate, Bold';text-align:center;letter-spacing:0.264583px;text-anchor:middle;display:none;fill:#000000;stroke-width:0.370417;stroke-linejoin:round;paint-order:fill markers stroke"
       x="4.8451819"
       y="4.9361324"
       id="text952"
       inkscape:label="SITE MAP"><tspan
         sodipodi:role="line"
         id="tspan950"
         style="font-style:normal;font-variant:normal;font-weight:bold;font-stretch:normal;font-size:3.52778px;font-family:Tate;-inkscape-font-specification:'Tate, Bold';font-variant-ligatures:normal;font-variant-caps:normal;font-variant-numeric:normal;font-variant-east-asian:normal;fill:#ffffff;fill-opacity:1;stroke-width:0.370417"
         x="4.8451819"
         y="4.9361324">SITE</tspan><tspan
         sodipodi:role="line"
         style="font-style:normal;font-variant:normal;font-weight:bold;font-stretch:normal;font-size:3.52778px;font-family:Tate;-inkscape-font-specification:'Tate, Bold';font-variant-ligatures:normal;font-variant-caps:normal;font-variant-numeric:normal;font-variant-east-asian:normal;fill:#ffffff;fill-opacity:1;stroke-width:0.370417"
         x="4.9774733"
         y="9.3458576"
         id="tspan1319"
         dy="-1.2 0">MAP</tspan></text>
    <text
       xml:space="preserve"
       style="font-weight:bold;font-size:3.52778px;font-family:Tate;-inkscape-font-specification:'Tate, Bold';text-align:center;letter-spacing:0.264583px;text-anchor:middle;display:none;fill:#000000;stroke-width:0.370417;stroke-linejoin:round;paint-order:fill markers stroke"
       x="5.4617882"
       y="4.9543819"
       id="text1007"
       inkscape:label="MAIN SITE"><tspan
         sodipodi:role="line"
         id="tspan1005"
         style="font-size:3.52778px;fill:#ffffff;fill-opacity:1;stroke-width:0.370417"
         x="5.4617882"
         y="4.9543819">MAIN</tspan><tspan
         sodipodi:role="line"
         style="font-size:3.52778px;fill:#ffffff;fill-opacity:1;stroke-width:0.370417"
         x="5.5940795"
         y="9.3641071"
         id="tspan1221"
         dy="-1.2">SITE</tspan></text>
    <text
       xml:space="preserve"
       style="font-weight:bold;font-size:3.52778px;font-family:Tate;-inkscape-font-specification:'Tate, Bold';text-align:center;letter-spacing:0.264583px;text-anchor:middle;display:none;fill:#000000;stroke-width:0.370417;stroke-linejoin:round;paint-order:fill markers stroke"
       x="5.2980857"
       y="3.7499988"
       id="text1361"
       inkscape:label="GO BACK"><tspan
         sodipodi:role="line"
         id="tspan1357"
         style="font-size:3.52778px;fill:#ffffff;fill-opacity:1;stroke-width:0.370417"
         x="5.2980857"
         y="3.7499988"
         dy="1.2">GO</tspan><tspan
         sodipodi:role="line"
         style="font-size:3.52778px;fill:#ffffff;fill-opacity:1;stroke-width:0.370417"
         x="5.4303775"
         y="8.1597242"
         id="tspan1359">BACK</tspan></text>
    <g
       aria-label="SITE
MAP"
       id="text857"
       style="font-weight:bold;font-size:3.52778px;font-family:Tate;-inkscape-font-specification:'Tate, Bold';text-align:center;letter-spacing:0.264583px;text-anchor:middle;display:inline;stroke-width:0.370417;stroke-linejoin:round;paint-order:fill markers stroke"
       inkscape:label="SITE MAP" />
  </g>
</svg>
