<?xml version="1.0" encoding="UTF-8" standalone="no"?>
<!-- Created with Inkscape (http://www.inkscape.org/) -->

<svg
   width="50"
   height="40"
   viewBox="0 0 13.229166 10.583334"
   version="1.1"
   id="svg5"
   inkscape:version="1.2.2 (732a01da63, 2022-12-09)"
   sodipodi:docname="arrow-goback2.svg"
   xmlns:inkscape="http://www.inkscape.org/namespaces/inkscape"
   xmlns:sodipodi="http://sodipodi.sourceforge.net/DTD/sodipodi-0.dtd"
   xmlns="http://www.w3.org/2000/svg"
   xmlns:svg="http://www.w3.org/2000/svg">
  <sodipodi:namedview
     id="namedview7"
     pagecolor="#505050"
     bordercolor="#ffffff"
     borderopacity="1"
     inkscape:showpageshadow="0"
     inkscape:pageopacity="0"
     inkscape:pagecheckerboard="1"
     inkscape:deskcolor="#505050"
     inkscape:document-units="mm"
     showgrid="false"
     showguides="true"
     inkscape:zoom="22.627417"
     inkscape:cx="20.70497"
     inkscape:cy="26.516504"
     inkscape:window-width="3440"
     inkscape:window-height="1377"
     inkscape:window-x="1912"
     inkscape:window-y="-8"
     inkscape:window-maximized="1"
     inkscape:current-layer="layer1">
    <sodipodi:guide
       position="9.4119695,9.6925699"
       orientation="1,0"
       id="guide1180"
       inkscape:locked="false" />
  </sodipodi:namedview>
  <defs
     id="defs2" />
  <g
     inkscape:label="Layer 1"
     inkscape:groupmode="layer"
     id="layer1">
    <path
       id="rect792"
       style="display:inline;stroke-width:0.471816;stroke-linejoin:round;paint-order:fill markers stroke"
       inkscape:label="rect792"
       d="M 3.9827026 0.14211019 C 3.9598392 0.14253871 3.9357161 0.14556495 3.9093221 0.15141195 C 3.6896039 0.1445636 0.70730789 4.4603035 0.48214111 4.7599162 C 0.012749583 5.3845003 0.47904053 5.8926636 0.47904053 5.8926636 C 0.47904053 5.8926636 3.5913677 10.400916 3.924825 10.400916 C 4.2582895 10.400916 4.2674398 9.9053385 4.2674398 9.9053385 L 4.2720907 8.6258301 L 12.720154 8.6258301 C 12.841304 8.6258301 12.946707 8.4782129 13.002307 8.3193888 C 13.014157 8.2855366 13.023729 8.2489393 13.030729 8.2108683 C 13.039579 8.1627596 13.044165 8.1118806 13.044165 8.0589396 L 13.044165 2.4768514 C 13.044165 2.1854582 12.899758 1.9513021 12.720154 1.9513021 L 4.2813924 1.9513021 L 4.2860433 0.70383301 L 4.2860433 0.70124919 C 4.2860433 0.70124919 4.325662 0.1356742 3.9827026 0.14211019 z M 6.4373332 2.3957194 C 6.6701661 2.3957194 7.2067952 2.4771411 7.2067952 2.7734741 C 7.2067952 2.9145851 7.0971171 3.0096354 6.9701172 3.0096354 C 6.7972564 3.0096354 6.7512843 2.8825114 6.4161458 2.8825114 C 5.996341 2.8825114 5.7743245 3.2674877 5.7743245 3.6943481 C 5.7743245 4.1247364 5.9893059 4.5056681 6.4373332 4.5056681 C 6.6313607 4.5056681 6.7835102 4.4667867 6.9034546 4.3397868 L 6.9034546 3.9480794 L 6.6600586 3.9480794 C 6.5154199 3.9480794 6.4130452 3.8457047 6.4130452 3.7010661 C 6.4130452 3.5528993 6.5260032 3.4612874 6.6600586 3.4612874 L 7.1680379 3.4649048 C 7.3197322 3.4649048 7.4326213 3.5634348 7.4326213 3.7398234 L 7.4326213 4.3997314 C 7.4326213 4.4738147 7.4111445 4.5337046 7.3793945 4.5795654 C 7.1818392 4.8441486 6.8006937 4.9924601 6.4373332 4.9924601 C 5.7211952 4.9924601 5.2239705 4.4245971 5.2239705 3.6943481 C 5.2239705 2.9605714 5.7176675 2.3957194 6.4373332 2.3957194 z M 9.1854858 2.3957194 C 9.8945681 2.3957194 10.399365 2.9782103 10.399365 3.6943481 C 10.399365 4.4245971 9.9086793 4.9924601 9.1854858 4.9924601 C 8.469348 4.9924601 7.9721232 4.4245971 7.9721232 3.6943481 C 7.9721232 2.9605714 8.4658202 2.3957194 9.1854858 2.3957194 z M 9.1854858 2.8825114 C 8.7445142 2.8825114 8.5224772 3.2674877 8.5224772 3.6943481 C 8.5224772 4.1247364 8.7374587 4.5056681 9.1854858 4.5056681 C 9.633513 4.5056681 9.8490112 4.1247364 9.8490112 3.6943481 C 9.8490112 3.2674877 9.6264575 2.8825114 9.1854858 2.8825114 z M 6.6590251 5.6058594 C 6.6645637 5.6056075 6.6699391 5.6058594 6.6755615 5.6058594 C 6.8625334 5.6058594 6.9933442 5.7290149 7.0533162 5.898348 L 7.7447469 7.8176107 C 7.7659089 7.8740554 7.7726522 7.9231413 7.7726522 7.9478353 C 7.7726522 8.0854184 7.6597839 8.180896 7.5292562 8.180896 C 7.3810897 8.180896 7.3071854 8.1032779 7.2719076 7.9974447 L 7.1484009 7.612972 L 6.2027222 7.612972 L 6.0797323 7.9938273 C 6.0444545 8.1031885 5.970123 8.180896 5.8254842 8.180896 C 5.6843734 8.180896 5.5645182 8.0749936 5.5645182 7.9338826 C 5.5645182 7.877438 5.5822629 7.8352497 5.5893229 7.8176107 L 6.2983236 5.898348 C 6.3564216 5.7411415 6.4873275 5.613669 6.6590251 5.6058594 z M 9.2841878 5.6058594 C 9.2953213 5.6055853 9.3065327 5.6058594 9.3177775 5.6058594 C 9.5823604 5.6058594 9.8187358 5.6868262 9.9492635 5.782076 C 10.069204 5.8702703 10.108427 5.9443332 10.108427 6.025472 C 10.108427 6.1630553 9.9953794 6.2761027 9.8577962 6.2761027 C 9.7978241 6.2761027 9.7450591 6.2477078 9.6603923 6.187736 C 9.5968922 6.141875 9.4729996 6.0926514 9.3177775 6.0926514 C 8.8768058 6.0926514 8.6547689 6.4771108 8.6547689 6.9039714 C 8.6547689 7.3343595 8.8697505 7.7152913 9.3177775 7.7152913 C 9.4729996 7.7152913 9.6036104 7.6660677 9.6671102 7.6202067 C 9.7447212 7.5637632 9.7941167 7.5421753 9.8505615 7.5421753 C 9.9881447 7.5421753 10.101192 7.6552227 10.101192 7.792806 C 10.101192 7.8739447 10.06249 7.9586805 9.9425456 8.0398193 C 9.8084901 8.1315409 9.5788326 8.2020833 9.3177775 8.2020833 C 8.6016396 8.2020833 8.1044149 7.6342202 8.1044149 6.9039714 C 8.1044149 6.1816598 8.5827767 5.6231277 9.2841878 5.6058594 z M 10.887708 5.6265299 C 11.0394 5.6265299 11.152291 5.7257352 11.152291 5.8880127 L 11.152291 6.6145833 L 12.084017 5.7221313 C 12.12635 5.6797985 12.192976 5.6265299 12.291756 5.6265299 C 12.425812 5.6300577 12.549504 5.7363184 12.546004 5.8880127 C 12.546004 5.9797348 12.489643 6.0535703 12.36617 6.1629313 L 11.731067 6.73809 L 12.45402 7.6904867 C 12.524575 7.7822088 12.588018 7.8632791 12.57391 7.97264 C 12.556271 8.1349177 12.411681 8.195007 12.270569 8.180896 C 12.168264 8.1703126 12.111744 8.1034363 12.023556 7.983492 L 11.35693 7.0729533 L 11.152291 7.2564046 L 11.152291 7.9266479 C 11.152291 8.0642311 11.046456 8.180896 10.887708 8.180896 C 10.736013 8.180896 10.623124 8.08187 10.623124 7.9266479 L 10.623124 5.8880127 C 10.623124 5.7433739 10.728958 5.6265299 10.887708 5.6265299 z M 3.7052002 5.6477173 L 4.3826782 5.6477173 C 4.7495668 5.6477173 5.0456868 5.8949241 5.0456868 6.268868 C 5.0456868 6.5158122 4.9433191 6.6813494 4.7175415 6.7871826 L 4.7175415 6.7944173 C 5.0174022 6.8367507 5.2539429 7.0874644 5.2539429 7.3943807 C 5.2539429 7.8917967 4.9222209 8.1597087 4.4353882 8.1597087 L 3.7088175 8.1597087 C 3.5465401 8.1597087 3.4266642 8.0573133 3.4266642 7.891508 L 3.4266642 5.9123006 C 3.4266642 5.7429675 3.5429227 5.6477173 3.7052002 5.6477173 z M 3.9558309 6.1138387 L 3.9558309 6.6430054 L 4.2307495 6.6430054 C 4.4036103 6.6430054 4.5165202 6.5403414 4.5165202 6.3639526 C 4.5165202 6.1981476 4.3859716 6.1138387 4.2307495 6.1138387 L 3.9558309 6.1138387 z M 6.6719442 6.1556966 L 6.3582682 7.12618 L 6.9933716 7.12618 L 6.6791789 6.1556966 L 6.6719442 6.1556966 z M 3.9558309 7.10861 L 3.9558309 7.694104 L 4.3718262 7.694104 C 4.5623259 7.694104 4.7035889 7.5847013 4.7035889 7.387146 C 4.7035889 7.2213408 4.5769123 7.10861 4.3299683 7.10861 L 3.9558309 7.10861 z " />
    <text
       xml:space="preserve"
       style="font-weight:bold;font-size:3.52778px;font-family:Tate;-inkscape-font-specification:'Tate, Bold';text-align:center;letter-spacing:0.264583px;text-anchor:middle;display:none;fill:#000000;stroke-width:0.370417;stroke-linejoin:round;paint-order:fill markers stroke"
       x="4.8451819"
       y="4.9361324"
       id="text952"
       inkscape:label="SITE MAP"><tspan
         sodipodi:role="line"
         id="tspan950"
         style="font-style:normal;font-variant:normal;font-weight:bold;font-stretch:normal;font-size:3.52778px;font-family:Tate;-inkscape-font-specification:'Tate, Bold';font-variant-ligatures:normal;font-variant-caps:normal;font-variant-numeric:normal;font-variant-east-asian:normal;fill:#ffffff;fill-opacity:1;stroke-width:0.370417"
         x="4.8451819"
         y="4.9361324">SITE</tspan><tspan
         sodipodi:role="line"
         style="font-style:normal;font-variant:normal;font-weight:bold;font-stretch:normal;font-size:3.52778px;font-family:Tate;-inkscape-font-specification:'Tate, Bold';font-variant-ligatures:normal;font-variant-caps:normal;font-variant-numeric:normal;font-variant-east-asian:normal;fill:#ffffff;fill-opacity:1;stroke-width:0.370417"
         x="4.9774733"
         y="9.3458576"
         id="tspan1319"
         dy="-1.2 0">MAP</tspan></text>
    <text
       xml:space="preserve"
       style="font-weight:bold;font-size:3.52778px;font-family:Tate;-inkscape-font-specification:'Tate, Bold';text-align:center;letter-spacing:0.264583px;text-anchor:middle;display:none;fill:#000000;stroke-width:0.370417;stroke-linejoin:round;paint-order:fill markers stroke"
       x="5.4617882"
       y="4.9543819"
       id="text1007"
       inkscape:label="MAIN SITE"><tspan
         sodipodi:role="line"
         id="tspan1005"
         style="font-size:3.52778px;fill:#ffffff;fill-opacity:1;stroke-width:0.370417"
         x="5.4617882"
         y="4.9543819">MAIN</tspan><tspan
         sodipodi:role="line"
         style="font-size:3.52778px;fill:#ffffff;fill-opacity:1;stroke-width:0.370417"
         x="5.5940795"
         y="9.3641071"
         id="tspan1221"
         dy="-1.2">SITE</tspan></text>
    <text
       xml:space="preserve"
       style="font-weight:bold;font-size:3.52778px;font-family:Tate;-inkscape-font-specification:'Tate, Bold';text-align:center;letter-spacing:0.264583px;text-anchor:middle;display:none;fill:#000000;stroke-width:0.370417;stroke-linejoin:round;paint-order:fill markers stroke"
       x="7.9439206"
       y="3.7499988"
       id="text1361"
       inkscape:label="GO BACK"><tspan
         sodipodi:role="line"
         id="tspan1357"
         style="font-size:3.52778px;fill:#ffffff;fill-opacity:1;stroke-width:0.370417"
         x="7.9439206"
         y="3.7499988"
         dy="1.2">GO</tspan><tspan
         sodipodi:role="line"
         style="font-size:3.52778px;fill:#ffffff;fill-opacity:1;stroke-width:0.370417"
         x="8.0762119"
         y="8.1597242"
         id="tspan1359">BACK</tspan></text>
  </g>
</svg>
