<?xml version="1.0" encoding="UTF-8" standalone="no"?>
<!-- Created with Inkscape (http://www.inkscape.org/) -->

<svg
   width="50"
   height="40"
   viewBox="0 0 13.229166 10.583334"
   version="1.1"
   id="svg5"
   inkscape:version="1.2.2 (732a01da63, 2022-12-09)"
   sodipodi:docname="arrow-mainsite2.svg"
   xmlns:inkscape="http://www.inkscape.org/namespaces/inkscape"
   xmlns:sodipodi="http://sodipodi.sourceforge.net/DTD/sodipodi-0.dtd"
   xmlns="http://www.w3.org/2000/svg"
   xmlns:svg="http://www.w3.org/2000/svg">
  <sodipodi:namedview
     id="namedview7"
     pagecolor="#505050"
     bordercolor="#ffffff"
     borderopacity="1"
     inkscape:showpageshadow="0"
     inkscape:pageopacity="0"
     inkscape:pagecheckerboard="1"
     inkscape:deskcolor="#505050"
     inkscape:document-units="mm"
     showgrid="false"
     showguides="true"
     inkscape:zoom="22.627417"
     inkscape:cx="20.70497"
     inkscape:cy="26.516504"
     inkscape:window-width="3440"
     inkscape:window-height="1377"
     inkscape:window-x="1912"
     inkscape:window-y="-8"
     inkscape:window-maximized="1"
     inkscape:current-layer="layer1">
    <sodipodi:guide
       position="9.4119695,9.6925699"
       orientation="1,0"
       id="guide1180"
       inkscape:locked="false" />
  </sodipodi:namedview>
  <defs
     id="defs2" />
  <g
     inkscape:label="Layer 1"
     inkscape:groupmode="layer"
     id="layer1">
    <path
       id="rect792"
       style="display:inline;stroke-width:0.471816;stroke-linejoin:round;paint-order:fill markers stroke"
       inkscape:label="rect792"
       d="M 3.9827026 0.14211019 C 3.9598392 0.14253871 3.9357161 0.14556495 3.9093221 0.15141195 C 3.6896039 0.1445636 0.70730789 4.4603035 0.48214111 4.7599162 C 0.012749583 5.3845003 0.47904053 5.8926636 0.47904053 5.8926636 C 0.47904053 5.8926636 3.5913677 10.400916 3.924825 10.400916 C 4.2582895 10.400916 4.2674398 9.9053385 4.2674398 9.9053385 L 4.2720907 8.6258301 L 12.720154 8.6258301 C 12.841304 8.6258301 12.946707 8.4782129 13.002307 8.3193888 C 13.014157 8.2855366 13.023729 8.2489393 13.030729 8.2108683 C 13.039579 8.1627596 13.044165 8.1118806 13.044165 8.0589396 L 13.044165 2.4768514 C 13.044165 2.1854582 12.899758 1.9513021 12.720154 1.9513021 L 4.2813924 1.9513021 L 4.2860433 0.70383301 L 4.2860433 0.70124919 C 4.2860433 0.70124919 4.325662 0.1356742 3.9827026 0.14211019 z M 7.8351807 2.4003703 C 8.0221526 2.4003703 8.1524466 2.5235259 8.2124186 2.6928589 L 8.9038493 4.6121216 C 8.9250113 4.6685662 8.9322713 4.718169 8.9322713 4.742863 C 8.9322713 4.8804461 8.819403 4.9754069 8.6888753 4.9754069 C 8.540709 4.9754069 8.4662879 4.8977888 8.4310099 4.7919556 L 8.3075033 4.4074829 L 7.3623413 4.4074829 L 7.2388346 4.7883382 C 7.203557 4.8976993 7.1292251 4.9754069 6.9845866 4.9754069 C 6.8434756 4.9754069 6.7236206 4.8695044 6.7236206 4.7283936 C 6.7236206 4.6719489 6.7413653 4.6297606 6.7484253 4.6121216 L 7.4574259 2.6928589 C 7.5173982 2.5305812 7.6552641 2.4003703 7.8351807 2.4003703 z M 4.1449666 2.4215576 C 4.3213554 2.4215576 4.4585944 2.548289 4.4973999 2.6752889 L 4.9139119 4.0726196 L 4.9211466 4.0726196 L 5.3371419 2.6752889 C 5.3759475 2.548289 5.5137032 2.4215576 5.690092 2.4215576 C 5.8770639 2.4215576 6.0146407 2.565859 6.0358073 2.6928589 L 6.3639526 4.661731 C 6.3674826 4.6828968 6.36757 4.7040366 6.36757 4.7216756 C 6.36757 4.8768975 6.2544329 4.9754069 6.1133219 4.9754069 C 5.9334055 4.9754069 5.8630973 4.8941989 5.8384033 4.7283936 L 5.6301473 3.2928223 L 5.6229126 3.2928223 L 5.1996826 4.7707682 C 5.1749881 4.8554347 5.108029 4.9754069 4.9175293 4.9754069 C 4.7270293 4.9754069 4.66007 4.855435 4.635376 4.7707682 L 4.212146 3.2928223 L 4.2049113 3.2928223 L 3.9966553 4.7283936 C 3.9719608 4.8941988 3.9016531 4.9754069 3.7217367 4.9754069 C 3.5806257 4.9754069 3.4674886 4.8768977 3.4674886 4.7216756 C 3.4674886 4.7040366 3.467576 4.6828978 3.471106 4.661731 L 3.7992513 2.6928589 C 3.820418 2.565859 3.9579947 2.4215576 4.1449666 2.4215576 z M 9.6128499 2.4215576 C 9.6175123 2.4213653 9.6220621 2.4215576 9.6268026 2.4215576 C 9.7784968 2.4215576 9.8913859 2.5200876 9.8913859 2.6964762 L 9.8913859 4.7004883 C 9.8913859 4.8768767 9.7784968 4.9754069 9.6268026 4.9754069 C 9.4751083 4.9754069 9.3622192 4.8768769 9.3622192 4.7004883 L 9.3622192 2.6964762 C 9.3622192 2.5256 9.4683159 2.4275183 9.6128499 2.4215576 z M 10.703223 2.4215576 C 10.707885 2.4213653 10.712435 2.4215576 10.717175 2.4215576 C 10.784203 2.4215576 10.893524 2.4743298 10.939384 2.5378296 L 12.057662 4.030245 L 12.064897 4.030245 L 12.064897 2.6964762 C 12.064897 2.5200878 12.177786 2.4215576 12.32948 2.4215576 C 12.481175 2.4215576 12.594063 2.5200876 12.594063 2.6964762 L 12.594063 4.7004883 C 12.594063 4.8768767 12.481175 4.9754069 12.32948 4.9754069 C 12.262452 4.9754069 12.156661 4.9226349 12.107271 4.8591349 L 10.988993 3.3842896 L 10.981759 3.3842896 L 10.981759 4.7004883 C 10.981759 4.8768767 10.868869 4.9754069 10.717175 4.9754069 C 10.56548 4.9754069 10.452592 4.8768769 10.452592 4.7004883 L 10.452592 2.6964762 C 10.452592 2.5256 10.558688 2.4275183 10.703223 2.4215576 z M 7.8315633 2.9507243 L 7.5173706 3.9206909 L 8.152474 3.9206909 L 7.8382812 2.9507243 L 7.8315633 2.9507243 z M 5.7676066 5.6099935 C 5.9651619 5.6099935 6.4590373 5.6842495 6.4590373 5.9629435 C 6.4590373 6.1005267 6.3675146 6.2239095 6.222876 6.2239095 C 6.0782372 6.2239095 5.9829592 6.1179728 5.753654 6.1179728 C 5.6019597 6.1179728 5.464266 6.1638616 5.464266 6.3226115 C 5.464266 6.6401111 6.5897786 6.6578135 6.5897786 7.4445068 C 6.5897786 7.9137008 6.180473 8.2062174 5.7112793 8.2062174 C 5.4396408 8.2062174 4.8539673 8.1430202 4.8539673 7.8114095 C 4.8539673 7.6738262 4.9454898 7.5607788 5.0901286 7.5607788 C 5.2912117 7.5607788 5.368975 7.6982381 5.6864746 7.6982381 C 5.9157799 7.6982381 6.0533773 7.6244647 6.0533773 7.4868815 C 6.0533773 7.074132 4.8854899 7.1376854 4.8854899 6.3086589 C 4.8854899 5.8888538 5.2984128 5.6099935 5.7676066 5.6099935 z M 7.341154 5.6311808 C 7.4928482 5.6311808 7.6057373 5.7297108 7.6057373 5.9060994 L 7.6057373 7.9101115 C 7.6057373 8.0864999 7.4928482 8.1850301 7.341154 8.1850301 C 7.1894597 8.1850301 7.0765706 8.0865001 7.0765706 7.9101115 L 7.0765706 5.9060994 C 7.0765706 5.729711 7.1894597 5.6311808 7.341154 5.6311808 z M 8.2263713 5.6523682 L 9.5244832 5.6523682 C 9.676177 5.6523682 9.7647786 5.7722921 9.7647786 5.8957642 C 9.7647786 6.0157083 9.6938164 6.1391602 9.5244832 6.1391602 L 9.1400106 6.1391602 L 9.1400106 7.9101115 C 9.1400106 8.0864999 9.0271215 8.1850301 8.8754272 8.1850301 C 8.723733 8.1850301 8.6108439 8.0865001 8.6108439 7.9101115 L 8.6108439 6.1391602 L 8.2263713 6.1391602 C 8.0570385 6.1391602 7.9865926 6.0157083 7.9865926 5.8957642 C 7.9865926 5.7722921 8.074677 5.6523682 8.2263713 5.6523682 z M 10.420553 5.6523682 L 11.295435 5.6523682 C 11.464765 5.6523682 11.546065 5.7722921 11.546065 5.8957642 C 11.546065 6.0157083 11.461239 6.1391602 11.295435 6.1391602 L 10.674801 6.1391602 L 10.674801 6.6543742 L 11.253577 6.6543742 C 11.426433 6.6543742 11.510925 6.7742981 11.510925 6.8977702 C 11.510925 7.0177145 11.422908 7.1411662 11.253577 7.1411662 L 10.674801 7.1411662 L 10.674801 7.6770508 L 11.327474 7.6770508 C 11.496806 7.6770508 11.578105 7.7969747 11.578105 7.9204468 C 11.578105 8.0403912 11.49328 8.1643595 11.327474 8.1643595 L 10.417452 8.1643595 C 10.262229 8.1643595 10.145634 8.0585259 10.145634 7.8997762 L 10.145634 5.9593262 C 10.145634 5.7829374 10.23358 5.6523682 10.420553 5.6523682 z " />
    <text
       xml:space="preserve"
       style="font-weight:bold;font-size:3.52778px;font-family:Tate;-inkscape-font-specification:'Tate, Bold';text-align:center;letter-spacing:0.264583px;text-anchor:middle;display:none;fill:#000000;stroke-width:0.370417;stroke-linejoin:round;paint-order:fill markers stroke"
       x="4.8451819"
       y="4.9361324"
       id="text952"
       inkscape:label="SITE MAP"><tspan
         sodipodi:role="line"
         id="tspan950"
         style="font-style:normal;font-variant:normal;font-weight:bold;font-stretch:normal;font-size:3.52778px;font-family:Tate;-inkscape-font-specification:'Tate, Bold';font-variant-ligatures:normal;font-variant-caps:normal;font-variant-numeric:normal;font-variant-east-asian:normal;fill:#ffffff;fill-opacity:1;stroke-width:0.370417"
         x="4.8451819"
         y="4.9361324">SITE</tspan><tspan
         sodipodi:role="line"
         style="font-style:normal;font-variant:normal;font-weight:bold;font-stretch:normal;font-size:3.52778px;font-family:Tate;-inkscape-font-specification:'Tate, Bold';font-variant-ligatures:normal;font-variant-caps:normal;font-variant-numeric:normal;font-variant-east-asian:normal;fill:#ffffff;fill-opacity:1;stroke-width:0.370417"
         x="4.9774733"
         y="9.3458576"
         id="tspan1319"
         dy="-1.2 0">MAP</tspan></text>
    <text
       xml:space="preserve"
       style="font-weight:bold;font-size:3.52778px;font-family:Tate;-inkscape-font-specification:'Tate, Bold';text-align:center;letter-spacing:0.264583px;text-anchor:middle;display:none;fill:#000000;stroke-width:0.370417;stroke-linejoin:round;paint-order:fill markers stroke"
       x="8.1894722"
       y="4.9543819"
       id="text1007"
       inkscape:label="MAIN SITE"><tspan
         sodipodi:role="line"
         id="tspan1005"
         style="font-size:3.52778px;fill:#ffffff;fill-opacity:1;stroke-width:0.370417"
         x="8.1894722"
         y="4.9543819">MAIN</tspan><tspan
         sodipodi:role="line"
         style="font-size:3.52778px;fill:#ffffff;fill-opacity:1;stroke-width:0.370417"
         x="8.321764"
         y="9.3641071"
         id="tspan1221"
         dy="-1.2">SITE</tspan></text>
    <text
       xml:space="preserve"
       style="font-weight:bold;font-size:3.52778px;font-family:Tate;-inkscape-font-specification:'Tate, Bold';text-align:center;letter-spacing:0.264583px;text-anchor:middle;display:none;fill:#000000;stroke-width:0.370417;stroke-linejoin:round;paint-order:fill markers stroke"
       x="5.2980857"
       y="3.7499988"
       id="text1361"
       inkscape:label="GO BACK"><tspan
         sodipodi:role="line"
         id="tspan1357"
         style="font-size:3.52778px;fill:#ffffff;fill-opacity:1;stroke-width:0.370417"
         x="5.2980857"
         y="3.7499988"
         dy="1.2">GO</tspan><tspan
         sodipodi:role="line"
         style="font-size:3.52778px;fill:#ffffff;fill-opacity:1;stroke-width:0.370417"
         x="5.4303775"
         y="8.1597242"
         id="tspan1359">BACK</tspan></text>
  </g>
</svg>
